<?xml version="1.0" encoding="UTF-8"?>
<!DOCTYPE svg PUBLIC "-//W3C//DTD SVG 1.1//EN" "http://www.w3.org/Graphics/SVG/1.1/DTD/svg11.dtd">
<!-- Creator: CorelDRAW 2021.5 -->
<svg xmlns="http://www.w3.org/2000/svg" xml:space="preserve" width="297mm" height="210mm" version="1.1" style="shape-rendering:geometricPrecision; text-rendering:geometricPrecision; image-rendering:optimizeQuality; fill-rule:evenodd; clip-rule:evenodd"
viewBox="0 0 29700 21000"
 xmlns:xlink="http://www.w3.org/1999/xlink"
 xmlns:xodm="http://www.corel.com/coreldraw/odm/2003">
 <defs>
  <style type="text/css">
   <![CDATA[
    .fil2 {fill:none}
    .fil3 {fill:#CF4C4A}
    .fil0 {fill:#E8D3C3}
    .fil4 {fill:#CF4C4A;fill-rule:nonzero}
    .fil1 {fill:#A98F71;fill-opacity:0.200000}
   ]]>
  </style>
   <clipPath id="id0">
    <rect x="13747.41" y="9947.6" width="2232.67" height="2226.33"/>
   </clipPath>
   <clipPath id="id1">
    <path d="M14646.04 9747.34c580.55,0 1051.18,470.63 1051.18,1051.18 0,580.55 -470.63,1051.18 -1051.18,1051.18 -580.55,0 -1051.18,-470.63 -1051.18,-1051.18 0,-580.55 470.63,-1051.18 1051.18,-1051.18z"/>
   </clipPath>
 </defs>
 <g id="Camada_x0020_1">
  <metadata id="CorelCorpID_0Corel-Layer"/>
  <g style="clip-path:url(#id0)">
   <image x="13747.41" y="9947.6" width="2232.66" height="2226.33" xlink:href="ATUALIZAR SALAS SVG_Images\ATUALIZAR SALAS SVG_ImgID1.png"/>
  </g>
  <path class="fil0" d="M14646.04 9747.34c580.55,0 1051.18,470.63 1051.18,1051.18 0,580.55 -470.63,1051.18 -1051.18,1051.18 -580.55,0 -1051.18,-470.63 -1051.18,-1051.18 0,-580.55 470.63,-1051.18 1051.18,-1051.18z"/>
  <g style="clip-path:url(#id1)">
   <g id="_1743470200944">
    <path id="_1" class="fil1" d="M14866.28 10053.28c508.67,0 921.02,412.35 921.02,921.01 0,508.67 -412.35,921.02 -921.02,921.02 -508.66,0 -921.01,-412.35 -921.01,-921.02 0,-508.66 412.35,-921.01 921.01,-921.01z"/>
   </g>
  </g>
  <path class="fil2" d="M14646.04 9747.34c580.55,0 1051.18,470.63 1051.18,1051.18 0,580.55 -470.63,1051.18 -1051.18,1051.18 -580.55,0 -1051.18,-470.63 -1051.18,-1051.18 0,-580.55 470.63,-1051.18 1051.18,-1051.18z"/>
  <path class="fil3" d="M14646.04 9747.34c580.55,0 1051.18,470.63 1051.18,1051.18 0,580.55 -470.63,1051.18 -1051.18,1051.18 -580.55,0 -1051.18,-470.63 -1051.18,-1051.18 0,-580.55 470.63,-1051.18 1051.18,-1051.18zm49.66 188.79c479.03,0 867.36,388.33 867.36,867.36 0,479.03 -388.33,867.36 -867.36,867.36 -479.03,0 -867.36,-388.33 -867.36,-867.36 0,-479.03 388.33,-867.36 867.36,-867.36z"/>
  <path class="fil4" d="M15497.09 10883.15l-421.84 -461.84 -421.85 461.84 295.07 0c-32.92,153.74 -169.72,269.42 -333.15,269.42 -187.93,0 -340.85,-152.9 -340.85,-340.82 0,-187.91 152.91,-340.82 340.85,-340.82l0 -238.24c-319.3,0 -579.07,259.79 -579.07,579.06 0,319.31 259.78,579.07 579.07,579.07 295.1,0 539.17,-221.92 574.5,-507.67l307.27 0z"/>
 </g>
</svg>
