<?xml version="1.0" encoding="UTF-8"?>
<!DOCTYPE svg PUBLIC "-//W3C//DTD SVG 1.1//EN" "http://www.w3.org/Graphics/SVG/1.1/DTD/svg11.dtd">
<!-- Creator: CorelDRAW 2021.5 -->
<svg xmlns="http://www.w3.org/2000/svg" xml:space="preserve" width="297mm" height="210mm" version="1.1" style="shape-rendering:geometricPrecision; text-rendering:geometricPrecision; image-rendering:optimizeQuality; fill-rule:evenodd; clip-rule:evenodd"
viewBox="0 0 29700 21000"
 xmlns:xlink="http://www.w3.org/1999/xlink"
 xmlns:xodm="http://www.corel.com/coreldraw/odm/2003">
 <defs>
  <style type="text/css">
   <![CDATA[
    .fil2 {fill:none}
    .fil3 {fill:#CF4C4A}
    .fil4 {fill:#CF4C4A}
    .fil0 {fill:#E8D3C3}
    .fil1 {fill:#A98F71;fill-opacity:0.200000}
   ]]>
  </style>
   <clipPath id="id0">
    <rect x="13808.3" y="10870.37" width="2519.78" height="2512.62"/>
   </clipPath>
    <clipPath id="id1">
     <path d="M14685.42 10679.76c660.58,0 1196.08,535.51 1196.08,1196.09 0,660.58 -535.5,1196.09 -1196.08,1196.09 -660.59,0 -1196.09,-535.51 -1196.09,-1196.09 0,-660.58 535.5,-1196.09 1196.09,-1196.09z"/>
    </clipPath>
 </defs>
 <g id="Camada_x0020_1">
  <metadata id="CorelCorpID_0Corel-Layer"/>
  <g style="clip-path:url(#id0)">
   <image x="13808.3" y="10870.38" width="2519.78" height="2512.61" xlink:href="INFO PROJETO SVG_Images\INFO PROJETO SVG_ImgID1.png"/>
  </g>
  <g id="_1743163231264">
   <path class="fil0" d="M14685.42 10679.76c660.58,0 1196.08,535.51 1196.08,1196.09 0,660.58 -535.5,1196.09 -1196.08,1196.09 -660.59,0 -1196.09,-535.51 -1196.09,-1196.09 0,-660.58 535.5,-1196.09 1196.09,-1196.09z"/>
   <g style="clip-path:url(#id1)">
    <g>
     <path id="_1" class="fil1" d="M14936.02 11027.87c578.79,0 1047.98,469.19 1047.98,1047.98 0,578.78 -469.19,1047.98 -1047.98,1047.98 -578.78,0 -1047.98,-469.2 -1047.98,-1047.98 0,-578.79 469.2,-1047.98 1047.98,-1047.98z"/>
    </g>
   </g>
   <path class="fil2" d="M14685.42 10679.76c660.58,0 1196.08,535.51 1196.08,1196.09 0,660.58 -535.5,1196.09 -1196.08,1196.09 -660.59,0 -1196.09,-535.51 -1196.09,-1196.09 0,-660.58 535.5,-1196.09 1196.09,-1196.09z"/>
   <path class="fil3" d="M14685.41 10679.76c660.58,0 1196.09,535.51 1196.09,1196.09 0,660.58 -535.51,1196.09 -1196.09,1196.09 -660.58,0 -1196.09,-535.51 -1196.09,-1196.09 0,-660.58 535.51,-1196.09 1196.09,-1196.09zm56.51 214.81c545.06,0 986.92,441.87 986.92,986.93 0,545.06 -441.86,986.92 -986.92,986.92 -545.06,0 -986.93,-441.86 -986.93,-986.92 0,-545.06 441.87,-986.93 986.93,-986.93z"/>
   <path class="fil4" d="M14258 11795.12c-9.66,30.64 -14.06,62.6 -18.17,94.74 -4.42,34.59 -2,68.62 -42.28,83.55 -41.56,15.4 -82.95,-15.93 -82.95,-59.46 0,-63.31 21.12,-154.65 49.54,-216.18 -34.22,-55.25 -49.54,-107.34 -49.54,-175.17 0,-39.48 10,-83.4 25.25,-119.63 12.28,-29.14 34.82,-66.72 56.72,-89.39 11.01,-11.4 22.18,-22.6 33.59,-33.6 12.08,-11.64 25.96,-21.29 39.34,-31.34 138.67,-104.23 344.06,-158.14 516.19,-158.14l25.42 0c0.69,0 1.28,0.02 1.97,0.07 34.56,2.36 61.16,21 61.16,58.61 0,31.4 -15.48,40.98 -31.79,62.84 -8.46,11.34 -15.74,24.02 -22.07,36.66 -30.32,60.54 -42.98,137.5 -54.04,203.96 -12.39,74.44 -23.79,154.32 -52.04,224.57 -60.44,150.35 -258.57,211.83 -401.51,147.53 -17.49,-7.87 -36.29,-16.39 -51.95,-27.57 -0.96,-0.68 -1.9,-1.36 -2.84,-2.05zm440.86 -575.43c-0.35,0.02 -0.71,0.04 -1.06,0.06 -43.04,2.59 -91.47,14.46 -133.39,24.89 -38.93,9.69 -79.58,23.48 -115.67,40.99 -100.1,48.56 -210.8,114.03 -210.8,239.96 0,13.66 0.65,27.32 3.33,40.68 14.16,-20.12 29.99,-39.92 45.45,-58.77 16.99,-20.72 36.28,-44.11 56,-62.19 5.66,-5.18 12.16,-9.18 17.51,-14.34 29.27,-28.2 94.66,-86.54 135.69,-86.54 58.38,0 87.73,81.42 25.58,116.23 -79.47,44.49 -160.76,145.51 -209.88,221.41 3.21,2.57 6.46,5.07 9.86,7.39 42.08,28.68 76.27,34.37 126.64,34.37 39.49,0 74.76,-14.79 107.18,-36.35 56.16,-37.37 69.89,-136.76 79.85,-197.89 15.18,-93.2 28.13,-183.5 63.71,-269.9z"/>
   <path class="fil4" d="M15134.56 11617.89c0,-124.08 -66.4,-246.13 -164.76,-320.02 -8.52,-6.4 -17.5,-12.12 -25.98,-18.6 -29.97,-22.9 -41.58,-55.24 -15.26,-86.96 17.71,-21.34 41.38,-26.93 66.58,-16.21 17.07,7.26 31.73,20.11 46.47,31.14 127.18,95.16 209.15,254.55 209.15,413.81 0,121.04 -50.28,274.61 -137.44,360.76 -19.37,19.15 -44.86,40.41 -53.21,67.33 -6.99,22.6 -11.18,45.87 -16.27,68.94 -6.84,30.92 -15.35,59.97 -27.13,89.42 -14.31,35.79 -27.21,62.91 -50.33,93.96 -21.43,28.76 -66.14,58.12 -102.86,58.12l-287.99 0c-23.13,0 -50.75,-12.52 -68.7,-26.65 -31.59,-24.86 -54.77,-59.25 -71.65,-95.41 -26.04,-55.81 -38.69,-118.59 -52.56,-178.29 -4.68,-20.15 -11.22,-33.38 -26.24,-47.35 -16.96,-15.79 -28.84,-26.76 -28.84,-52.2 0,-30.53 23.51,-58.1 54.93,-58.1 39.55,0 78,47.58 95.45,79.53 13.39,24.53 21.05,65.77 27.48,93.37 8.84,37.95 18.55,77.37 34.44,113.09 5.85,13.15 13.28,26.91 21.94,38.4 3.16,4.2 14.18,17.4 20.08,17.4l275.33 0c13.27,0 34.15,-37.92 39.32,-47.8 22.61,-43.24 29.92,-85.85 40.34,-132.65 10.9,-48.98 24.62,-90.7 61.49,-126.94 40.03,-39.34 70.15,-81.3 95.47,-131.34 30.49,-60.26 40.75,-119.4 40.75,-186.75z"/>
   <path class="fil4" d="M14526.92 12467.75c0,-35.82 30.33,-58.1 64.43,-58.1l262.68 0c76.89,0 76.89,116.2 0,116.2l-262.68 0c-34.1,0 -64.43,-22.28 -64.43,-58.1z"/>
   <path class="fil4" d="M14566.51 12639.24c0,-35.82 30.33,-58.1 64.43,-58.1l183.53 0c76.89,0 76.83,116.2 0,116.2l-183.53 0c-34.04,0 -64.43,-22.28 -64.43,-58.1z"/>
  </g>
 </g>
</svg>
