<?xml version="1.0" encoding="UTF-8"?>
<!DOCTYPE svg PUBLIC "-//W3C//DTD SVG 1.1//EN" "http://www.w3.org/Graphics/SVG/1.1/DTD/svg11.dtd">
<!-- Creator: CorelDRAW 2021.5 -->
<svg xmlns="http://www.w3.org/2000/svg" xml:space="preserve" width="297mm" height="210mm" version="1.1" style="shape-rendering:geometricPrecision; text-rendering:geometricPrecision; image-rendering:optimizeQuality; fill-rule:evenodd; clip-rule:evenodd"
viewBox="0 0 29700 21000"
 xmlns:xlink="http://www.w3.org/1999/xlink"
 xmlns:xodm="http://www.corel.com/coreldraw/odm/2003">
 <defs>
  <style type="text/css">
   <![CDATA[
    .fil2 {fill:none}
    .fil3 {fill:#CF4C4A}
    .fil0 {fill:#E8D3C3}
    .fil1 {fill:#A98F71;fill-opacity:0.200000}
   ]]>
  </style>
   <clipPath id="id0">
    <rect x="12229.28" y="7820.06" width="2519.78" height="2512.62"/>
   </clipPath>
    <clipPath id="id1">
     <path d="M13113.36 7601.03c660.58,0 1196.09,535.51 1196.09,1196.09 0,660.58 -535.51,1196.09 -1196.09,1196.09 -660.58,0 -1196.08,-535.51 -1196.08,-1196.09 0,-660.58 535.5,-1196.09 1196.08,-1196.09z"/>
    </clipPath>
 </defs>
 <g id="Camada_x0020_1">
  <metadata id="CorelCorpID_0Corel-Layer"/>
  <g style="clip-path:url(#id0)">
   <image x="12229.28" y="7820.06" width="2519.78" height="2512.62" xlink:href="INFO PLANTAS SVG_Images\INFO PLANTAS SVG_ImgID1.png"/>
  </g>
  <g id="_1743635639600">
   <path class="fil0" d="M13113.36 7601.03c660.58,0 1196.09,535.51 1196.09,1196.09 0,660.58 -535.51,1196.09 -1196.09,1196.09 -660.58,0 -1196.08,-535.51 -1196.08,-1196.09 0,-660.58 535.5,-1196.09 1196.08,-1196.09z"/>
   <g style="clip-path:url(#id1)">
    <g>
     <path id="_1" class="fil1" d="M13363.97 7949.14c578.78,0 1047.98,469.2 1047.98,1047.98 0,578.79 -469.2,1047.98 -1047.98,1047.98 -578.79,0 -1047.98,-469.19 -1047.98,-1047.98 0,-578.78 469.19,-1047.98 1047.98,-1047.98z"/>
    </g>
   </g>
   <path class="fil2" d="M13113.36 7601.03c660.58,0 1196.09,535.51 1196.09,1196.09 0,660.58 -535.51,1196.09 -1196.09,1196.09 -660.58,0 -1196.08,-535.51 -1196.08,-1196.09 0,-660.58 535.5,-1196.09 1196.08,-1196.09z"/>
   <path class="fil3" d="M13113.36 7601.04c660.58,0 1196.09,535.5 1196.09,1196.08 0,660.59 -535.51,1196.09 -1196.09,1196.09 -660.58,0 -1196.09,-535.5 -1196.09,-1196.09 0,-660.58 535.51,-1196.08 1196.09,-1196.08zm56.51 214.81c545.06,0 986.92,441.86 986.92,986.93 0,545.06 -441.86,986.92 -986.92,986.92 -545.07,0 -986.93,-441.86 -986.93,-986.92 0,-545.07 441.86,-986.93 986.93,-986.93z"/>
   <path class="fil3" d="M13028.06 8512.49c-105.99,0 -211.99,0 -317.98,0 -85.86,0 -196.69,-10.04 -196.69,121.3 0,124.6 1.03,204.32 43.51,310.53 19.22,48.05 48.72,102.45 80.62,142.33l33.99 41.37c91.63,99.03 230.62,176.21 369,189.04 156.71,84.45 390.45,69.24 519.14,-14.26 38.3,-24.85 75.27,-55.55 102.04,-92.82 13.27,-18.47 23.8,-38.11 33.99,-58.38 41.47,-82.49 35.64,-165.41 35.64,-254.55l0 -109.23 -30.07 0c6.4,-47.16 5.41,-104.03 5.41,-154.03 0,-57.28 -28.97,-107.9 -85.96,-117.25l-205.8 -0.74c3.33,-14.31 17.89,-38.81 25.11,-53.59 14.77,-30.2 12.45,-22.43 45.04,-33.65 30.61,-10.54 51.49,-25.42 63.04,-54.94 21.65,-55.3 -6.32,-90.33 -44.25,-120.53l-116.59 -93.21c-51.07,-40.28 -99.73,-42.55 -146.96,4.26 -50.23,49.75 -5.34,100.39 -33.57,136.89l-146.7 171.31c-7.51,8.09 -9.63,11.44 -16.55,19.51 -7.98,9.3 -12.16,8.48 -15.41,20.64zm304.9 3.31l-213.1 0 143.79 -170.94c9.81,-12.14 20.96,-20.3 23.13,-39.15 6.43,-55.35 -20.17,-101.37 36.35,-101.37 7.85,0 116.09,89.95 131.13,101.63 58.28,45.36 21.07,50.3 -28.34,66.75 -38.78,12.89 -42.08,37.98 -67.85,89.52 -7.14,14.31 -21.89,39.65 -25.11,53.56zm-353.68 535.42l0 -26.75c76.65,0 111.61,3.12 171.55,50.18 29.37,23.08 68.18,79.79 69.28,129.47 -28.93,-19.35 -83.18,-99.36 -118.5,-99.36 -22.34,0 -42.04,19.69 -42.04,42.04 0,35.32 80.01,89.56 99.36,118.5 -72.51,-1.64 -137.89,-63.68 -165.56,-128.77 -9.13,-21.45 -14.09,-55.84 -14.09,-85.31zm328.21 226.62c35.53,-53.11 183.47,-161.69 183.47,-206.44 0,-17.35 -16.12,-38.21 -45.89,-38.21 -22.69,0 -83.9,70.54 -102.23,88.88 -23.09,23.08 -74.03,79.51 -96.53,94.59 0,-91.32 -1.14,-168.38 64.05,-241.73 104.97,-118.1 195.92,-102.29 341.14,-102.29 0,80.66 7.28,169.45 -27.98,239.6 -10.2,20.28 -17.23,34.18 -29.28,50.98 -21.2,29.49 -54.39,55.9 -84.88,75.69 -60.19,39.05 -127.13,38.93 -201.87,38.93z"/>
  </g>
 </g>
</svg>
