<?xml version="1.0" encoding="UTF-8"?>
<!DOCTYPE svg PUBLIC "-//W3C//DTD SVG 1.1//EN" "http://www.w3.org/Graphics/SVG/1.1/DTD/svg11.dtd">
<!-- Creator: CorelDRAW 2021.5 -->
<svg xmlns="http://www.w3.org/2000/svg" xml:space="preserve" width="297mm" height="210mm" version="1.1" style="shape-rendering:geometricPrecision; text-rendering:geometricPrecision; image-rendering:optimizeQuality; fill-rule:evenodd; clip-rule:evenodd"
viewBox="0 0 29700 21000"
 xmlns:xlink="http://www.w3.org/1999/xlink"
 xmlns:xodm="http://www.corel.com/coreldraw/odm/2003">
 <defs>
  <style type="text/css">
   <![CDATA[
    .fil2 {fill:none}
    .fil3 {fill:#CF4C4A}
    .fil4 {fill:#CF4C4A}
    .fil0 {fill:#E8D3C3}
    .fil1 {fill:#A98F71;fill-opacity:0.200000}
   ]]>
  </style>
   <clipPath id="id0">
    <rect x="13779" y="9917.51" width="2519.78" height="2512.62"/>
   </clipPath>
    <clipPath id="id1">
     <path d="M14656.11 9726.9c660.58,0 1196.09,535.51 1196.09,1196.09 0,660.58 -535.51,1196.09 -1196.09,1196.09 -660.58,0 -1196.09,-535.51 -1196.09,-1196.09 0,-660.58 535.51,-1196.09 1196.09,-1196.09z"/>
    </clipPath>
 </defs>
 <g id="Camada_x0020_1">
  <metadata id="CorelCorpID_0Corel-Layer"/>
  <g style="clip-path:url(#id0)">
   <image x="13779" y="9917.52" width="2519.78" height="2512.61" xlink:href="JOGAR SVG_Images\JOGAR SVG_ImgID1.png"/>
  </g>
  <g id="_1743624027904">
   <path class="fil0" d="M14656.11 9726.9c660.58,0 1196.09,535.51 1196.09,1196.09 0,660.58 -535.51,1196.09 -1196.09,1196.09 -660.58,0 -1196.09,-535.51 -1196.09,-1196.09 0,-660.58 535.51,-1196.09 1196.09,-1196.09z"/>
   <g style="clip-path:url(#id1)">
    <g>
     <path id="_1" class="fil1" d="M14906.71 10075.02c578.79,0 1047.98,469.19 1047.98,1047.97 0,578.79 -469.19,1047.98 -1047.98,1047.98 -578.78,0 -1047.97,-469.19 -1047.97,-1047.98 0,-578.78 469.19,-1047.97 1047.97,-1047.97z"/>
    </g>
   </g>
   <path class="fil2" d="M14656.11 9726.9c660.58,0 1196.09,535.51 1196.09,1196.09 0,660.58 -535.51,1196.09 -1196.09,1196.09 -660.58,0 -1196.09,-535.51 -1196.09,-1196.09 0,-660.58 535.51,-1196.09 1196.09,-1196.09z"/>
   <path class="fil3" d="M14656.11 9726.9c660.58,0 1196.09,535.51 1196.09,1196.09 0,660.58 -535.51,1196.09 -1196.09,1196.09 -660.58,0 -1196.09,-535.51 -1196.09,-1196.09 0,-660.58 535.51,-1196.09 1196.09,-1196.09zm56.51 214.82c545.06,0 986.92,441.86 986.92,986.92 0,545.07 -441.86,986.93 -986.92,986.93 -545.07,0 -986.93,-441.86 -986.93,-986.93 0,-545.06 441.86,-986.92 986.93,-986.92z"/>
   <path class="fil4" d="M15287.38 10872.19l-430.67 -303.11 -401.97 -282.91c-21.73,-15.29 -48.31,-17.09 -71.89,-4.85 -23.58,12.24 -37.42,35.01 -37.42,61.58l0 586.03 0 586.02c0,26.57 13.84,49.34 37.42,61.58 23.58,12.24 50.16,10.44 71.89,-4.85l401.97 -282.91 430.67 -303.11c19.05,-13.41 29.45,-33.44 29.45,-56.73 0,-23.3 -10.4,-43.33 -29.45,-56.74z"/>
  </g>
 </g>
</svg>
